<svg xmlns="http://www.w3.org/2000/svg" width="40" height="26" fill="none" viewBox="0 0 40 26"><path fill="#fff" d="M0 0h40v26H0z"/><rect width="32" height="17" x="4" y="4" fill="#000" rx="3"/><path fill="#fff" d="M16.88 6.73h2.16v12.09h-2.16V6.73zm4 4.09h2.16v8.01h-2.16v-8.01zm11.84 8.01-3.24-4.25 2.97-3.76H29.9l-2.85 3.66V6.73h-2.16v12.1h2.16V14.7l2.85 4.12h2.82zm-21.34-8.1a4.1 4.1 0 0 0-1.94.49v-4.5H7.28v8.09a4.1 4.1 0 1 0 4.1-4.09v.01zm0 6.03a1.94 1.94 0 1 1-.02-3.88 1.94 1.94 0 0 1 .02 3.88z"/><path fill="url(#a)" d="M13.48 9.98a1.92 1.92 0 1 0 0-3.84 1.92 1.92 0 0 0 0 3.85z"/><defs><radialGradient id="a" cx="0" cy="0" r="1" gradientTransform="translate(11.92 6.03) scale(6.30504)" gradientUnits="userSpaceOnUse"><stop offset=".1" stop-color="red"/><stop offset=".49" stop-color="#E83E49"/><stop offset="1" stop-color="#F0F"/></radialGradient></defs></svg>