<svg xmlns="http://www.w3.org/2000/svg" width="40" height="26" fill="none" viewBox="0 0 40 26"><path fill="#fff" d="M0 0h40v26H0z"/><path fill="#FF671D" d="m15.86 4.39.59-.26c-.1.3-.17.6-.2.91.21-.17.37-.4.46-.65l.2-.26c.25-.07.52-.07.77 0-.06 0-.13.07-.2.13v.2c.4.13.6-.46.98-.13l.2.13a.75.75 0 0 0-.46.32h.07c.29.03.58-.02.84-.13.72.39.85 1.17 1.1 1.82-.06 0-.12-.07-.25-.07a.39.39 0 0 0 .06.26c.07.07.2.07.26.13.33.65 1.1.78 1.24 1.5.2.52.26 1.04.39 1.5a3.17 3.17 0 0 0-.46-.2.65.65 0 0 0 .4.52l.38.13c.13.29.21.6.26.9-.13 0-.26-.19-.39-.12.08.26.24.49.46.65l.06.65a2.77 2.77 0 0 0 2.73.58 2.03 2.03 0 0 0 .65-.32 1.02 1.02 0 0 1 .52-.98c.98-.39 1.89.4 2.47 1.04a8.65 8.65 0 0 1 1.56 7.54 2.22 2.22 0 0 0 1.82-.07 5.23 5.23 0 0 0 2.47-5 7.16 7.16 0 0 0-3.97-6.24c-.84-.06-1.75.33-2.47-.2a1.75 1.75 0 0 1-.51-.45c.25 0 .5.07.71.2.07-.13-.06-.2-.06-.33a3.26 3.26 0 0 1 .78-.13c.06-.06-.07-.13-.13-.2a3.8 3.8 0 0 0-.85-.12c-.06.06.07.2.07.32-.2 0-.46-.13-.65-.06-.26-.4-.4-.85-.78-1.04a4.35 4.35 0 0 1 2.6-.46l-.4.26c.2.2.45.32.72.33.06-.13-.07-.26-.13-.4.71.2.84.98 1.36 1.44.65.78 1.63 1.1 2.28 1.88a8.78 8.78 0 0 1 1.69 9.17 5 5 0 0 1-3.38 2.79 6.28 6.28 0 0 1-1.56.06c-.35.21-.76.3-1.17.26h-2.92l.2-.84c.06-.07.12-.2.25-.2.07.2.2.4.26.59a.55.55 0 0 0 .26-.46 1.17 1.17 0 0 0-.32-.45l.19-.33c.13.13.26.33.46.2.06-.07.19-.07.13-.2-.33-.2-.52-.71-.91-.52a2.88 2.88 0 0 0-.85 2.21 1.4 1.4 0 0 1-.52 0v-1.17c.13 0 .2.2.26.2.07-.13.26-.26.13-.46-.13-.13-.39-.26-.2-.45.07-.07.14-.13.14-.2a.31.31 0 0 0 .39.13c.06-.06-.07-.2-.07-.26.13-.06.46.13.52-.06a1.17 1.17 0 0 0-1.04-.26c-.13.39-.58.26-.9.26l-.14-.13c-.39.58-.97 1.23-.65 2.01l.33.4H18.2l.33-.46a.78.78 0 0 0 .97-.07c-.2-.13-.52-.2-.71-.32 0-.4.2-.85-.2-1.1a.7.7 0 0 0-.84.12l-.13.13a1.42 1.42 0 0 0-.52-.32c-.01-.15.01-.31.06-.45.46-.2.85.13 1.24.13a1.17 1.17 0 0 0-1.04-.59.76.76 0 0 0-.72.33 1.5 1.5 0 0 0-1.04.19l-.65 1.1a1.57 1.57 0 0 0 .4 1.3h-7.6a1.68 1.68 0 0 1-.33-1.36c0-.33.52-.46.39-.78.1-.27.28-.5.52-.65a.9.9 0 0 1 .71-.06 1.29 1.29 0 0 1 1.43-.26l.26.13c.2-.5.38-1 .52-1.5l.65-1.5a22.57 22.57 0 0 1-.84-2.98c0-.2.2-.2.26-.33.06-.2.19-.39.13-.58a.69.69 0 0 0-.46.39c0-.33-.2-.65-.06-.98.13-.06.2-.2.32-.26-.06-.2.07-.39 0-.58-.18.09-.34.22-.45.39.13-.33-.26-.85.26-1.04a8.42 8.42 0 0 1 .32-2.86l.32-.52a2 2 0 0 1 .07-.65l.45-.4a.39.39 0 0 0-.26-.06 2.28 2.28 0 0 1 1.11-1.23 2.5 2.5 0 0 0 .65.2h.26a.6.6 0 0 0-.46-.33c.27-.07.46-.2.79-.26.13.26.3.5.51.71a.9.9 0 0 0 0-.58.9.9 0 0 0-.19-.26 3 3 0 0 1 1.23.39z"/><path fill="#fff" d="M14.37 5.36c0 .2.2.26.32.33.2.2.2.52.52.52.3 0 .59.06.85.2.37-.23.81-.3 1.23-.2a1.23 1.23 0 0 1 .78-.91c.33-.07.59.13.91.2.26.24.44.56.52.9a1.39 1.39 0 0 1-.58 1.17l-.2.07a1.31 1.31 0 0 1-.13 1.1c.13 0 .2 0 .26-.13.07.13-.06.33-.06.52-.13.33-.46.52-.52.85a.66.66 0 0 1-.52.32c-.07.07 0 .13.06.13a3.73 3.73 0 0 1 1.89.52v.33a4.9 4.9 0 0 0-1.89-.59.7.7 0 0 0-.06.33c.56.24 1.09.57 1.56.97v.4a4.76 4.76 0 0 0-1.7-1.11c-.19.13-.25.58-.51.26a2.87 2.87 0 0 0-1.04-.4.62.62 0 0 1-.13-.45c.2-.06.32-.32.39-.52.13 0 .32.13.39-.13a.32.32 0 0 0-.2-.39 2.15 2.15 0 0 0-1.56.13c0 .13-.06.33.13.33a.39.39 0 0 0 .26-.07.63.63 0 0 0 .4.59c-.07.2 0 .45-.27.52a2.33 2.33 0 0 0-1.17.45c-.19-.06-.26-.2-.45-.32a6.33 6.33 0 0 0-1.56.97.41.41 0 0 1 0-.39 8.23 8.23 0 0 1 1.43-.84v-.4a1.87 1.87 0 0 0-.85.07h.07c-.26.2-.65.26-.91.46a.34.34 0 0 1 .2-.46 3.52 3.52 0 0 1 1.62-.39c.06-.39-.33-.52-.46-.78a2.72 2.72 0 0 1-.26-.65h.13a4.8 4.8 0 0 1 0-1.36 1.93 1.93 0 0 1-.9-1.1c.08-.3.22-.59.38-.85.33 0 .59-.46.91-.33.25 0 .5.05.72.13z"/><path fill="#FF671D" d="M14.5 6.34a2.7 2.7 0 0 0-.91.58c-.2-.2-.78-.13-.65-.52a.91.91 0 0 1 .58-.78c.33.13.91.26.98.72zm4.55-.07c.03.28.03.57 0 .85-.13.13-.4 0-.46.2a1.9 1.9 0 0 0-.9-.98.9.9 0 0 1 .32-.52c.32-.26.71.06.97.26l.07.2z"/><path fill="#fff" d="M28.93 7.18c-.26.2-.59-.13-.85.07l-.32-.13c.2-.12.42-.23.65-.33.2.1.37.23.52.4z"/><path fill="#FF671D" d="M16.9 6.86c.13.06.2.26.33.32.06.07.06.07.06.13-.13.07-.32 0-.45.07-.13-.13-.13-.46-.4-.46a.07.07 0 0 1 .03-.04.06.06 0 0 1 .04-.02h.4zm-1.62.52h-.59a1.05 1.05 0 0 1 .91-.46c0-.06-.32.46-.32.46z"/><path fill="#fff" d="M11.9 7.83a.62.62 0 0 1 .26-.65l.07-.06v.52l-.33.2zm18.58.33a.66.66 0 0 0-.45-.26 1.1 1.1 0 0 0-.52-.4c.16-.07.34-.12.52-.12.2.23.35.5.45.78z"/><path fill="#FF671D" d="M15.02 7.83c.06.07.2.13.2.26a9.85 9.85 0 0 1-.2 1.37.76.76 0 0 0-.4.39 1.38 1.38 0 0 1-.44.2.56.56 0 0 1 0-.46c.19-.2.45-.2.58-.46a1.26 1.26 0 0 0 0-.84.49.49 0 0 1-.52.06c-.2-.13-.26-.39-.52-.45l-.07-.13.07-.07c.06.13 1.3.13 1.3.13zm3.18.07c-.06.26-.45.2-.52.52-.2.13-.39.06-.58.06-.07-.06-.13-.2-.2-.13.13.33-.13.85.33.91 0 .4.45.33.65.52 0 .13-.13.26-.2.4-.2-.27-.58-.2-.65-.53l-.32-.26-.13-1.23c.45-.52 1.04-.2 1.62-.26z"/><path fill="#fff" d="M12.29 8.42c-.33.2-.07.58-.2.84l-.13.65c-.06-.39-.39-.71-.19-1.1l.13-.26c.13-.07.26-.07.39-.13zm7.54 1.17c-.13 0-.2.06-.33.13.01-.33.06-.66.13-.98a.82.82 0 0 1 .2.85z"/><path fill="#FF671D" d="M14.82 10.63a1.24 1.24 0 0 1-.52.2.2.2 0 0 1 0-.27c.2.07.33 0 .52.07z"/><path fill="#fff" d="M20.67 10.89c.12.18.2.38.26.58a.2.2 0 0 1-.26 0c-.13-.13-.26-.2-.32-.32v-.52c.13.06.13.32.32.26z"/><path fill="#FF671D" d="M17.49 10.95c-.2-.06-.33-.13-.52-.2l.06-.06h.52l-.06.26z"/><path fill="#fff" d="M17.23 11.93a1.24 1.24 0 0 1-.46.9 1.36 1.36 0 0 0-.26-.38 1.9 1.9 0 0 0-.13.58c-.06.07-.26.07-.39.07a1.92 1.92 0 0 1-.13-.65h-.06c-.07.06-.07.2-.13.26l-.2.39c-.13-.07-.32 0-.45-.2-.07-.2.06-.32 0-.45l-.26.26a.94.94 0 0 1-.2-.85 2.77 2.77 0 0 1 2.67.07zm9.81.39c0 .13.13.13.2.2.32-.14.45.19.58.38v.07c-.46-.13-1.04-.33-1.43 0-.06-.07 0-.26 0-.33a.6.6 0 0 1 .46-.32c0-.13.12-.13.19 0zm-5.78.39c-.07.06-.2-.07-.26-.07-.2 0-.46.07-.52-.13l-.07-.2a.53.53 0 0 1 .46-.06c.13.13.26.33.39.46zm-2.28.9.26.33a.5.5 0 0 1-.52-.13c-.26-.2-.26-.58-.32-.9.26.12.65.32.58.7zm-5.72-.25c.22.24.37.53.46.84-.39-.06-.65-.45-.85-.71a1.43 1.43 0 0 1-.06-.52.43.43 0 0 1 .45.39zm7.15 0c-.26 0-.58.06-.78-.13a.46.46 0 0 1 .4-.2c.12.13.25.2.38.33zm-6.1.06-.07.59a2.28 2.28 0 0 1-.4-.91c.17.09.32.2.46.32zm13.44.26a1.26 1.26 0 0 0-1.17.2c-.06 0-.06 0-.13.06a.41.41 0 0 1 0-.39c.2-.2.46-.45.72-.32a.98.98 0 0 1 .58.45zm-9.16.85a.92.92 0 0 1-.58.06c-.26-.2-.2-.65-.13-.97l.13-.26c.26.39 0 1.04.58 1.17zm3.84-.72a.83.83 0 0 1-.78-.13l.32-.2c0 .07.46.33.46.33zm-9.88.2c-.13.26-.46.32-.52.58h-.07c0-.26-.19-.58.13-.71.16.03.31.07.46.13zm4.68-.07a4 4 0 0 0 .2.91c-.2-.13-.6-.2-.6-.52.12-.14.25-.28.4-.39zm-1.95.78a1.07 1.07 0 0 1-.52-.78l.45.13.07.65zm12.6-.39c.2 0 .33-.26.52-.13a.94.94 0 0 1 .46.65 4.73 4.73 0 0 0-1.37-.39c-.26 0-.45.26-.71.26-.1.08-.2.15-.33.2-.13-.13-.06-.33-.13-.52.2 0 .33-.13.52-.2.4.13.91-.52 1.04.13zM16 14.98c-.06-.2-.06-.39-.13-.52.2-.06.33-.26.46-.39 0 .33 0 .72-.33.91zm5.79-.39c-.4.2-.78-.06-1.1-.2-.07-.06-.14-.06-.14-.19.2 0 .4-.26.52-.06.25.13.49.28.72.45zm3.12-.06c.26.13.26.45.26.71-.4-.32-.72-.78-1.04-1.1.32 0 .52.32.78.39zm-4.62.52.33.32c-.52.2-.91-.26-1.17-.58a.87.87 0 0 1 .58-.13l.26.39zm-7.08-.26c-.1.34-.3.63-.59.84-.02-.27.03-.53.13-.78a.32.32 0 0 1 .46-.06zm9.81.39c-.06.06-.06.26-.2.26-.25-.2-.19-.46-.12-.72a.6.6 0 0 1 .32.46zm1.17 0c0 .26.4.2.46.52.06.2.2.32.2.45-.07.07-.27.07-.27.26a.95.95 0 0 1 .4.33 5.02 5.02 0 0 1-.14.97.14.14 0 0 1-.13-.13 9.41 9.41 0 0 0-.78-2.27l-.39-.33c.26-.06.59-.06.65.2zm4.16-.07.45.26.13.46c-.26.13-.45-.13-.71-.2-.13-.06.06-.26-.13-.32-.26 0-.46.2-.72.13a.06.06 0 0 0-.04.01.06.06 0 0 0-.02.05c0 .07.06.07.06.13a.8.8 0 0 1-.65.13.31.31 0 0 1-.13-.39c.14-.13.4-.06.59-.26.39-.13.71.13 1.04.13l.13-.13zm-9.1.46c.18.09.36.2.52.32-.58.26-1.1-.13-1.56-.45.2-.07.46-.07.72-.13.2 0 .26.2.32.26zm-5.39-.2a2.3 2.3 0 0 1-.2.72.86.86 0 0 1-.78.13c.38-.2.68-.52.85-.91 0 .06.06.06.13.06zm9.88.72c.06.13-.07.26-.2.32h-.06a.98.98 0 0 1-.13-1.04c.32.07.13.52.39.72zm-6.24-.46c.18.21.37.4.58.59a.58.58 0 0 1-.58.13c-.33-.13-.4-.59-.72-.72 0-.06-.06-.13-.06-.2l.78.2zm-2.34-.13a1.1 1.1 0 0 1-.46.65 1.65 1.65 0 0 1-.78.13c.26-.26.59-.45.85-.71l.39-.07zm.06 1.37-.26.06c.2-.32.52-.52.65-.91.13-.13.4-.06.59-.13a1.61 1.61 0 0 1-.98.98zm12.93-.52a.57.57 0 0 1 .33.65l-.46-.26c0-.07 0-.2-.06-.2h-.07a1.87 1.87 0 0 0-.84.07c-.13-.07-.2-.26-.26-.4a1.85 1.85 0 0 1 1.04-.12c.2 0 .32.06.32.26zm-2.53 0a1.6 1.6 0 0 1-.06.78c-.13-.33-.33-.59-.46-.91.13-.2.46-.07.52.13zm-2.53.45c.13.26-.2.58.26.65 0 .26-.13.52-.13.78a1.36 1.36 0 0 0-.26-.71c.06-.07.13-.2 0-.26-.07-.07-.26-.07-.26-.27-.07-.26.2-.39.26-.58.06.13.06.26.13.4zm1.1.46c.09.22.1.47.07.71.06.07.13.07.26.07a1.53 1.53 0 0 1-.33.65l-.06.12c0-.26.13-.52-.07-.71a.24.24 0 0 1-.2-.07c0-.32.14-.65-.12-.84 0-.26.32-.33.45-.46.07.07 0 .33 0 .52zm-10.98 0 .52.32c-.07.07 0 .13.06.2a.43.43 0 0 1 .26.32v.45c-.13-.26-.32-.58-.65-.65a1.02 1.02 0 0 1-.45-.45 2.09 2.09 0 0 0-1.1-.07c-.07-.13.12-.26.19-.39l.13-.13c.39.2.84.07 1.04.4zm14.62-.07a.74.74 0 0 1 .52.2 1.63 1.63 0 0 1-.07.58 1.14 1.14 0 0 0-.84-.58c-.2 0-.33.19-.46.25.2-.19 0-.71.46-.65.2-.06.13.27.39.2zm-10.27.52c-.06.06-.2 0-.32-.07a.49.49 0 0 1-.33-.45c.13-.07.26 0 .4-.07l.25.59zm2.54-.33c.26.07.58.07.65.4l.13.32c-.4.13-.52-.59-.91-.2a.9.9 0 0 0-.91 0c-.07.07-.2.13-.26.07 0-.2.2-.33.26-.46.39.13.65-.65 1.04-.13zm-4.03.07a.93.93 0 0 1 .13.39.77.77 0 0 1-.52.07l-.33-.4c.2 0 .52.07.72-.06zm-2.67 1.17c0 .32.4.2.46.52.2.26-.2.45-.26.65-.13-.13-.07-.39-.2-.52 0-.13.2-.2.07-.33a.82.82 0 0 0-.39-.06 7.88 7.88 0 0 1-.91-.65.7.7 0 0 0-.52.13l-.13-.13c.2-.13.2-.39.45-.46.59 0 .85.65 1.43.85zm14.5-.33c.25.2.19.59.12.85a1.36 1.36 0 0 1-.39-.26.39.39 0 0 0-.06-.26c-.2-.26-.59-.07-.91-.13-.07-.13.06-.26.13-.39.2-.07.32-.2.52-.13.32.13.39.32.58.32zm-8.45-.13a2.27 2.27 0 0 1 1.62.59v.26c-.2-.13-.45-.13-.65-.33a2.13 2.13 0 0 0-1.1.07c0-.06-.07-.2-.2-.13-.28.04-.55.15-.78.33 0-.2.13-.33.2-.52.28-.15.6-.23.9-.26zm2.6 1.56a.39.39 0 0 1-.07.26c-.06-.19-.45-.32-.2-.58a8.35 8.35 0 0 0-.25-1.24c.65.26.45.98.52 1.56zm7.4-1.17c0 .2.07.52-.06.72-.13-.13-.33-.26-.26-.46 0-.12.13-.64.32-.25zm-17.41.33c.06.26.58.13.52.52 0 .07-.07.13-.07.26.13.06.4 0 .52.13.26.26.13.65 0 .91-.26-.39-.19-1.04-.78-1.24-.32-.13-.58-.39-.97-.26-.07-.19.13-.32.26-.45.2-.07.26.2.52.13zm15.01.07c.13.13-.13.26.06.32a.44.44 0 0 1 .4.26v.2l-.07.06-.72-.33c.07-.13-.06-.26-.19-.26-.2 0-.32.2-.45.13.2-.13.32-.58.58-.45.13.04.26.07.39.07zm-6.1.45c.32.13.12.65.51.65l.07.06c-.04.2-.1.4-.2.59-.13-.26-.2-.65-.52-.72a1.63 1.63 0 0 0-.26-.45c-.13 0-.32-.07-.45-.07.06.2.32.26.26.52.13.13.39.2.45.4v.45l-.32.2c-.07-.33.06-.72-.26-.92-.4 0-.4-.45-.65-.58-.26.13-.59.06-.91.2.06-.14.06-.4.26-.4.26-.19.65-.06.9-.26.39.06.76.17 1.11.33zm8.05.2c0 .12-.07.19-.07.32.2.06.13.26.07.39l-.07.06c-.06-.26-.32-.45-.45-.71l.2-.39c.12 0 .25.2.32.33zm-19.17.06c-.13.07-.13.26-.13.39.06.13.26.06.32.2 0 .25.07.58-.13.7a.69.69 0 0 0-.39-.45 1.8 1.8 0 0 0-.19 1.17c-.13.07-.2.2-.33.26a2.43 2.43 0 0 1 .46-2.2c.06-.07.2-.07.39-.07zm1.56.2a.9.9 0 0 0-.2.26c.2.1.36.25.46.45.06.45-.33.78-.59 1.1a2.06 2.06 0 0 1 .13-.9c-.19 0-.45-.33-.58 0-.13.38-.52.7-.59 1.1l-.06-.07c-.03-.58.09-1.16.32-1.69.4-.26.78-.45 1.1-.26z"/><path fill="#fff" d="M19.37 20.11c0 .07 0 .13.13.13.2-.06.26.13.33.26a.27.27 0 0 1-.2.4c-.13-.27-.06-.79-.52-.72-.06-.07-.2-.13-.26-.2.2-.06.46-.12.52.14z"/><path fill="#FF671D" d="M16.19 20.96c.05.42.15.84.32 1.23h-.58c-.07-.39-.52-.71-.4-1.1.14-.13.4-.13.46-.4 0-.12-.2-.19-.32-.12h-.07c-.06-.4.4-.33.65-.46 0 .26-.06.52-.06.85z"/><path fill="#fff" d="M8.72 20.96c-.13 0-.2-.13-.33-.13-.2.32.07.71-.13 1.1a1.42 1.42 0 0 1-.32-.2 5.56 5.56 0 0 1 0-1.03l.45-.46a.76.76 0 0 1 .33.72z"/><path fill="#FF671D" d="M24.96 20.37c-.32.52-.06 1.24-.06 1.82h-.46a2.19 2.19 0 0 1-.32-1.1.34.34 0 0 1 .13-.26c.13.13.13.32.26.39a.8.8 0 0 0 .13-.65l-.13-.13c.2 0 .32-.07.45-.07zm-7.6.52-.07 1.3h-.45a4.95 4.95 0 0 1-.2-1.36l.2-.33.52.4zm1.04-.13c.13.13.06.33.06.46l-.39.97h-.45l.2-1.3c.06-.06.12-.26.25-.26s.2.07.33.13z"/></svg>