<svg xmlns="http://www.w3.org/2000/svg" width="40" height="26" fill="none" viewBox="0 0 40 26"><path fill="#fff" d="M0 0h40v26H0z"/><path fill="#D71A20" d="M16.14 5a8.93 8.93 0 0 0-4.97 1.63s.55 1.35-.6 2.79l.03.01c1.12-.6 6.42-5.14 12.16.29 0 0 9.08-.78 6.67 6.93 0 0 3.21 1.13 2.82 5.35h.04c.13-.27 2.01-3.95-.96-5.65 0 0 1.2-2.72-1.04-5.24-1.14-1.28-3.23-2.5-7.05-1.99 0 0-2.67-4.09-7.1-4.12zM7 5.16v.03c.5.26 3.57 2.06.13 4.2l2.13 8.44s2.99-2.23 5.46-1.21c1.58.65 2 2.45 1.69 5.24h.05c.22-.49 3.15-5.5-1.3-7.02-.85-.29-2.04-.38-4.17.34L9.02 9.97S12.15 6.06 7 5.16zm18.65 10.53c-1.68.07-2.68 1.2-2.68 1.2-2.64-2.38-4.98.23-4.98.23 1.72 1.58.89 4.88.89 4.88h.04c1.42-2.15 1.25-4.26 1.25-4.26 1.42-.4 2.27 1.04 2.27 1.04 1.78-1.8 3.56-1.92 4.54-1.36 2.4 1.38 1.58 4.44 1.58 4.44h.05c2.02-3.6.19-5.3-1.07-5.82a4.39 4.39 0 0 0-1.9-.35z"/></svg>