<svg xmlns="http://www.w3.org/2000/svg" width="40" height="26" fill="none" viewBox="0 0 40 26"><g clip-path="url(#a)"><path fill="#fff" d="M0 16.03h40.04v9.98H0v-9.98z"/><path fill="#333" d="M6.04 18.94a.1.1 0 0 0 .06-.05 1.13 1.13 0 0 1 .59-.36 1.75 1.75 0 0 1 1.1.01 1 1 0 0 1 .43.25.76.76 0 0 1 .07.09c.04.05.06.05.1 0a1.18 1.18 0 0 1 .54-.34l.27-.06a1.46 1.46 0 0 1 .39-.03 1.9 1.9 0 0 1 .39.07c.14.04.28.1.4.18a.99.99 0 0 1 .38.54c.05.19.08.38.08.58v1.6a.32.32 0 0 0 .02.14.13.13 0 0 0 .15.09.47.47 0 0 0 .18-.06.48.48 0 0 1 .05-.03c.05-.03.07-.02.07.04v.5a.2.2 0 0 1-.13.17 1.35 1.35 0 0 1-.64.16.93.93 0 0 1-.4-.09.59.59 0 0 1-.34-.36 1.78 1.78 0 0 1-.08-.5v-1.67a.46.46 0 0 0-.44-.48h-.13a.53.53 0 0 0-.52.38 1.22 1.22 0 0 0-.05.38v2.1c0 .18 0 .18-.18.18h-.8c-.1.01-.13-.01-.13-.13v-2.13a2.32 2.32 0 0 0-.03-.41.46.46 0 0 0-.44-.37h-.14a.5.5 0 0 0-.47.33 1.1 1.1 0 0 0-.08.4v2.12a1.08 1.08 0 0 1 0 .11c0 .06-.03.08-.09.09h-.96a.06.06 0 0 1-.07-.04.06.06 0 0 1 0-.03v-2.83c0-.15 0-.15-.14-.15h-.22c-.07 0-.08-.01-.08-.07v-.66c0-.05.02-.07.08-.07h.93c.12 0 .12 0 .16.11l.12.3zm13.17 1.81v-.31c0-.04 0-.07-.05-.08l-.3-.04a.19.19 0 0 1-.1-.01.3.3 0 0 0-.14-.02 2.16 2.16 0 0 0-.47.03.92.92 0 0 0-.4.19.78.78 0 0 0-.24.54.92.92 0 0 0 .09.46.66.66 0 0 0 .48.4.63.63 0 0 0 .42 0 .58.58 0 0 0 .4-.15.74.74 0 0 0 .27-.53.26.26 0 0 1 .01-.08.4.4 0 0 0 .03-.18v-.22zm.66-.17v1.03a1.04 1.04 0 0 0 0 .13.17.17 0 0 0 .23.15c.05-.02.1-.02.13-.04s.06 0 .07.04a.2.2 0 0 1 0 .11.37.37 0 0 0-.03.15c0 .11-.03.15-.14.18a.95.95 0 0 1-.46.04.46.46 0 0 1-.39-.32c-.02-.04-.04-.05-.07 0a1.26 1.26 0 0 1-.56.32 1.08 1.08 0 0 1-.35.05.52.52 0 0 0-.1 0 1.27 1.27 0 0 1-.52-.09 1.16 1.16 0 0 1-.62-.47 1.1 1.1 0 0 1-.16-.4 1.22 1.22 0 0 1-.02-.43.23.23 0 0 0 0-.06.87.87 0 0 1 .1-.42 1.07 1.07 0 0 1 .42-.48 1.61 1.61 0 0 1 .54-.2 4.68 4.68 0 0 1 .88-.03c.1.04.2.02.3.06.06.03.09 0 .09-.06a.9.9 0 0 0-.03-.31c-.02-.07-.01-.15-.05-.22a.67.67 0 0 0-.31-.34.95.95 0 0 0-.45-.1h-.31a1.19 1.19 0 0 0-.35.08.7.7 0 0 1-.12.03 2.22 2.22 0 0 0-.3.11c-.06.03-.08.02-.08-.05v-.35a.1.1 0 0 1 .07-.1l.27-.1c.1-.03.19-.02.28-.06a3 3 0 0 1 .79-.04c.24.02.48.08.69.2a1 1 0 0 1 .48.63l.04.22c.03.38.04.77.03 1.15l.01-.01zm.9.07v-1.56c0-.11-.01-.12-.12-.12h-.22c-.07 0-.1-.02-.1-.1v-.31c0-.08.01-.1.09-.1h.7c.08 0 .1.02.1.1.03.07.04.15.05.23a.06.06 0 0 0 .04.06c.03.01.05-.01.06-.03a1.04 1.04 0 0 1 .4-.29 2.07 2.07 0 0 1 .76-.14c.19 0 .37.04.55.1.16.05.31.14.44.26a.95.95 0 0 1 .26.44 2.2 2.2 0 0 1 .08.62v2.48a.06.06 0 0 1-.06.06 3.3 3.3 0 0 1-.52 0 .07.07 0 0 1-.07-.07v-2.59a.86.86 0 0 0-.12-.45.66.66 0 0 0-.36-.27 1 1 0 0 0-.45-.05.89.89 0 0 0-.68.35.98.98 0 0 0-.14.34 2.3 2.3 0 0 0-.03.59v2.03c0 .11 0 .11-.12.12l-.41.01c-.11 0-.13-.01-.13-.13v-1.58zm10.31-.47h.82c.13 0 .14 0 .14-.14l-.03-.32a1.3 1.3 0 0 0-.21-.52.67.67 0 0 0-.13-.14.9.9 0 0 0-.77-.17.81.81 0 0 0-.56.42 1.82 1.82 0 0 0-.2.76c-.01.1 0 .11.1.11h.84zm.19.47h-1.05c-.07 0-.09.01-.08.09 0 .12.03.24.06.36.05.18.14.34.26.48a1 1 0 0 0 .53.3 1.97 1.97 0 0 0 .82-.03 1.9 1.9 0 0 0 .4-.13l.23-.13c.07-.03.1-.01.1.06a.4.4 0 0 1-.01.1c-.02.08-.03.17-.03.25a.13.13 0 0 1-.08.13 2.56 2.56 0 0 1-.4.17l-.37.09c-.23.04-.46.05-.69.02a1.61 1.61 0 0 1-.79-.3 1.54 1.54 0 0 1-.5-.64 1.97 1.97 0 0 1-.17-.53 2.8 2.8 0 0 1-.02-.82l.01-.18a2.42 2.42 0 0 1 .3-.84c.16-.27.4-.48.7-.6a2.07 2.07 0 0 1 1.11-.05 1.38 1.38 0 0 1 .76.55c.13.2.22.4.27.63.04.21.06.42.05.64a.39.39 0 0 1-.05.22.31.31 0 0 1-.15.12.71.71 0 0 1-.27.04h-.94zm-18.45-.59v-2.12c0-.14 0-.14-.15-.14h-1.21c-.07 0-.08-.02-.08-.09v-.34c0-.06.01-.07.07-.08h3.37c.17 0 .17 0 .17.18v.23c0 .07-.01.1-.1.1h-1.24c-.12 0-.12 0-.12.13v4.25c0 .17 0 .18-.18.18h-.37c-.12 0-.16-.03-.16-.16v-2.14zm14.95.59V19.1c0-.13 0-.13-.13-.13h-.33c-.09 0-.1-.02-.11-.11v-.3c0-.08.02-.1.1-.1h.36c.1 0 .1 0 .1-.1l.01-.65a.96.96 0 0 1 .28-.66.8.8 0 0 1 .13-.1 1.15 1.15 0 0 1 .57-.16 2.4 2.4 0 0 1 .66.06c.12.03.13.05.13.18v.24c0 .08-.03.1-.1.08l-.24-.06a1.12 1.12 0 0 0-.3-.02.57.57 0 0 0-.28.07.26.26 0 0 0-.13.14.7.7 0 0 0-.07.28v.58c0 .12 0 .12.12.12h.76a.07.07 0 0 1 .08.08v.32c0 .08-.04.1-.1.1h-.7c-.16 0-.16 0-.16.17v3.11c0 .08-.01.1-.1.1a2.94 2.94 0 0 1-.43.01c-.1 0-.12-.02-.12-.13v-1.58.01zm-2.18 1.77a2.2 2.2 0 0 1-.72-.09 3.95 3.95 0 0 1-.38-.12.1.1 0 0 1-.08-.11.73.73 0 0 1 .03-.24.66.66 0 0 0 .01-.14c0-.07.04-.08.09-.05a1.73 1.73 0 0 0 .8.25h.4a.77.77 0 0 0 .44-.12.52.52 0 0 0 .23-.61.6.6 0 0 0-.3-.36 2.75 2.75 0 0 0-.54-.22 2.9 2.9 0 0 1-.74-.34.86.86 0 0 1-.36-.47 1.33 1.33 0 0 1-.02-.55.83.83 0 0 1 .26-.47c.16-.15.35-.26.56-.31.26-.07.54-.1.81-.08.12.05.25.03.37.07l.21.05c.1.01.12.04.13.15v.27a.37.37 0 0 1 0 .07c-.01.05-.03.06-.08.05l-.3-.12a.17.17 0 0 0-.04 0 2.65 2.65 0 0 0-.4-.05h-.33a.7.7 0 0 0-.49.25.35.35 0 0 0-.09.25.62.62 0 0 0 .03.23.64.64 0 0 0 .33.3c.23.11.48.2.72.29.2.07.38.17.55.3a.9.9 0 0 1 .33.5l.04.25a.31.31 0 0 1-.02.17c-.03.07-.02.15-.04.22a.96.96 0 0 1-.33.47 1.31 1.31 0 0 1-.47.24 1.7 1.7 0 0 1-.61.07zm7.69-1.76V19.1c0-.14 0-.14-.14-.14h-.21a.07.07 0 0 1-.09-.08 3.05 3.05 0 0 1 0-.35c0-.06.04-.07.09-.07h.7c.1 0 .13.02.15.12 0 .09.03.16.04.25 0 .02 0 .06.04.07.04.01.05-.03.06-.05a.8.8 0 0 1 .2-.22.94.94 0 0 1 .36-.2c.16-.05.33-.07.5-.05.06 0 .08.03.08.09v.41c0 .06-.01.07-.07.08h-.22a.73.73 0 0 0-.64.36 1.35 1.35 0 0 0-.15.4 2.8 2.8 0 0 0-.04.65v1.82c0 .14-.02.15-.16.15h-.4c-.07 0-.1-.02-.1-.1v-1.59.01zm-17.79-1.71.1-.15c.14-.18.33-.3.54-.36a1.34 1.34 0 0 1 .5-.05c.06 0 .08.03.08.1v.39c0 .07-.01.09-.09.1h-.25a.73.73 0 0 0-.6.35 1.3 1.3 0 0 0-.15.37c-.03.14-.04.29-.03.43v2.1c0 .1-.03.11-.12.12h-.39c-.13 0-.15 0-.15-.14v-3.14c0-.09 0-.1-.1-.1h-.23c-.08 0-.1-.02-.11-.11v-.3c0-.08.01-.1.09-.1h.72c.08 0 .08.01.1.09l.09.4z"/><path fill="#E31E26" d="M0 16.03h13.43V.02H0v16.01z"/><path fill="#000" d="M13.43 16.03h1.44V.02h-1.44v16.01z"/><path fill="#F3911F" d="M14.87 16.03h7.16V.02h-7.16v16.01z"/><path fill="#CC2027" d="M22.03 16.03h5.13V.02h-5.13v16.01z"/><path fill="#0D74BA" d="M27.16 16.03h.81V.02h-.81v16.01z"/><path fill="#19A049" d="M27.97 16.03H40V-.16H27.97v16.2-.01z"/><path fill="#fff" d="M14.86 12.1c-.04 0-.06.02-.08.04a.5.5 0 0 1-.3.06.15.15 0 0 1-.1-.14.7.7 0 0 1 0-.14v-1.57a2.63 2.63 0 0 0-.04-.46 1.04 1.04 0 0 0-.72-.85 1.8 1.8 0 0 0-.76-.1c-.36.02-.7.18-.95.44-.06.06-.06.06-.12 0a1.07 1.07 0 0 0-.39-.3 1.78 1.78 0 0 0-1-.12 1.36 1.36 0 0 0-.85.45c-.05.06-.06.05-.09-.02l-.11-.3a.1.1 0 0 0-.12-.08H8.3c-.07 0-.08 0-.08.09v.58c0 .09 0 .1.1.1h.27c.08 0 .09.01.1.09v2.86c0 .14 0 .14.14.14h.78c.15 0 .15 0 .15-.14V10.6a1.48 1.48 0 0 1 .03-.34.6.6 0 0 1 .54-.5.56.56 0 0 1 .66.55c.02.24.02.49.02.73v1.77c0 .03.02.06.06.06h.86c.14 0 .14 0 .14-.14v-2.15c0-.12.01-.23.04-.34a.62.62 0 0 1 .64-.49.54.54 0 0 1 .56.54v1.66c0 .17.01.34.06.51a.57.57 0 0 0 .31.37c.2.08.43.1.65.07a1.22 1.22 0 0 0 .44-.14.12.12 0 0 0 .07-.1l.04-.55-.01-.02-.01.01zm16.89-3.07a.15.15 0 0 0-.09-.02h-.87a.16.16 0 0 0-.16.1c-.22.37-.44.75-.65 1.14-.05.08-.1.13-.2.12a.78.78 0 0 0-.11 0c-.16 0-.16 0-.16-.16V7.5c0-.05-.02-.07-.07-.07h-1.4c-.05 0-.07.02-.07.07v.6c0 .1 0 .1.11.1h.19c.16 0 .16 0 .16.17v4.41c0 .1 0 .1.1.1h.88c.09 0 .1 0 .1-.09v-1.55a.06.06 0 0 1 .02-.05.06.06 0 0 1 .05-.02h.16a.16.16 0 0 1 .18.1c.21.38.44.75.66 1.12.08.14.18.26.3.36a1.03 1.03 0 0 0 .79.16.99.99 0 0 0 .35-.1.14.14 0 0 0 .08-.14l.04-.53a.03.03 0 0 0-.02-.04 1.2 1.2 0 0 1-.18.08.31.31 0 0 1-.39-.13 1.09 1.09 0 0 1-.06-.1l-.68-1.12a.15.15 0 0 1 0-.18l.73-1.25.21-.37zm-7.57 2.3v1.47c0 .07.02.07.08.08h.84c.15 0 .15 0 .15-.15V10.7a2.22 2.22 0 0 1 .02-.33.75.75 0 0 1 .12-.35.64.64 0 0 1 .65-.26.52.52 0 0 1 .49.49l.01.29v2.21c0 .12 0 .12.12.12h.83c.13 0 .13 0 .13-.14v-2.36a2.33 2.33 0 0 0-.04-.47 1.09 1.09 0 0 0-.75-.88 1.82 1.82 0 0 0-.74-.08 1.66 1.66 0 0 0-.6.15 1.4 1.4 0 0 0-.42.31c-.05.06-.06.06-.1-.02l-.1-.27c-.03-.1-.04-.1-.16-.1h-.9c-.07 0-.08 0-.08.08v.6c0 .07.01.08.07.08h.23c.15 0 .15 0 .15.15v1.41zm-6.08.27a.51.51 0 0 1-.34.38 1.26 1.26 0 0 1-.33.07c-.25.02-.5.02-.74.02-.12 0-.13-.01-.13-.13v-1.2c0-.1 0-.11.12-.11h.68c.17 0 .34.04.49.12a.5.5 0 0 1 .23.3c.05.18.06.37.01.55h.01zm-1.54-2.3v-.54c0-.1.01-.12.1-.11a5.14 5.14 0 0 1 .85.05.48.48 0 0 1 .34.37.97.97 0 0 1 0 .5.45.45 0 0 1-.29.3.86.86 0 0 1-.3.08h-.6c-.09 0-.1-.01-.1-.1v-.56.01zm2.74 1.86a1.21 1.21 0 0 0-.13-.43 1.12 1.12 0 0 0-.64-.53c-.03 0-.07 0-.09-.05.02-.03.06-.04.09-.06a1.18 1.18 0 0 0 .31-1.64 1.15 1.15 0 0 0-.68-.51 2.93 2.93 0 0 0-.82-.1h-2.3c-.07 0-.08.01-.08.08v.64c0 .08.01.08.08.09h.23c.17 0 .17 0 .17.16v4.01a.05.05 0 0 0 .01.05h.03a.05.05 0 0 0 .02.01h1.66c.27 0 .53-.01.8-.04.24-.03.48-.1.7-.21a1.17 1.17 0 0 0 .57-.66c.08-.26.1-.53.07-.8v-.01zm2.73.25v.25a.68.68 0 0 1-.1.34.62.62 0 0 1-1-.02.58.58 0 0 1-.06-.2.79.79 0 0 1 .07-.53.52.52 0 0 1 .27-.22 1 1 0 0 1 .54-.03l.21.05a.08.08 0 0 1 .07.1v.26zm1.5.7-.14.07c-.2.05-.28-.01-.28-.21v-.87c0-.3.02-.65-.02-1a1.12 1.12 0 0 0-.37-.8 1.4 1.4 0 0 0-.5-.27 2.75 2.75 0 0 0-.86-.1 3.45 3.45 0 0 0-1.14.21.15.15 0 0 0-.11.16v.55c0 .07.01.08.08.05l.02-.01a2.42 2.42 0 0 1 .65-.2c.23-.05.47-.06.7-.02a.53.53 0 0 1 .46.48l.01.15c0 .16 0 .16-.14.12a2.3 2.3 0 0 0-1.22 0 1.16 1.16 0 0 0-.87.89 1.72 1.72 0 0 0-.03.46 1.15 1.15 0 0 0 .83 1.1 1.8 1.8 0 0 0 .66.06 1.29 1.29 0 0 0 .84-.33c.05-.05.06-.05.1.01a.6.6 0 0 0 .42.28c.28.05.57.02.83-.11a.18.18 0 0 0 .12-.17l.02-.42a.42.42 0 0 0 0-.05c0-.03-.02-.04-.05-.03"/></g><defs><clipPath id="a"><path fill="#fff" d="M0 0h40v26H0z"/></clipPath></defs></svg>